<svg width="720" height="640" viewBox="0 0 720 640" fill="none" xmlns="http://www.w3.org/2000/svg">
  <rect width="720" height="640" rx="36" fill="#F8FAFF"/>
  <circle cx="588" cy="150" r="92" fill="#DCE9FF"/>
  <circle cx="128" cy="510" r="112" fill="#E8F3FF"/>
  <rect x="126" y="118" width="468" height="360" rx="28" fill="white" stroke="#E2E8F0" stroke-width="2"/>
  <rect x="160" y="166" width="162" height="122" rx="20" fill="#2563EB"/>
  <rect x="352" y="166" width="208" height="20" rx="10" fill="#CBD5E1"/>
  <rect x="352" y="206" width="150" height="18" rx="9" fill="#E2E8F0"/>
  <rect x="352" y="244" width="108" height="18" rx="9" fill="#E2E8F0"/>
  <rect x="160" y="322" width="400" height="118" rx="24" fill="#F8FAFC"/>
  <rect x="188" y="352" width="120" height="16" rx="8" fill="#CBD5E1"/>
  <rect x="188" y="382" width="220" height="16" rx="8" fill="#E2E8F0"/>
  <rect x="468" y="344" width="64" height="64" rx="16" fill="#10B981"/>
  <path d="M490 376L506 392L534 362" stroke="white" stroke-width="8" stroke-linecap="round" stroke-linejoin="round"/>
  <rect x="510" y="438" width="52" height="12" rx="6" fill="#2563EB"/>
  <rect x="188" y="420" width="92" height="12" rx="6" fill="#CBD5E1"/>
  <circle cx="592" cy="470" r="44" fill="#7C3AED"/>
  <path d="M574 470L588 484L610 458" stroke="white" stroke-width="8" stroke-linecap="round" stroke-linejoin="round"/>
</svg>